<?xml version="1.0" standalone="no"?>
<!DOCTYPE svg PUBLIC "-//W3C//DTD SVG 20010904//EN"
 "http://www.w3.org/TR/2001/REC-SVG-20010904/DTD/svg10.dtd">
<svg version="1.0" xmlns="http://www.w3.org/2000/svg"
 width="100.000000pt" height="100.000000pt" viewBox="0 0 100.000000 100.000000"
 preserveAspectRatio="xMidYMid meet">

<g transform="translate(0.000000,100.000000) scale(0.100000,-0.100000)"
fill="#000000" stroke="none">
<path d="M455 905 c-94 -25 -158 -128 -137 -219 5 -23 8 -58 5 -79 -4 -25 0
-44 9 -55 28 -32 68 -129 68 -163 0 -39 7 -52 35 -67 11 -5 26 -27 34 -47 11
-31 10 -45 -5 -101 -9 -35 -20 -64 -24 -64 -9 0 -60 167 -67 220 -6 42 -13 49
-31 27 -8 -10 -7 -28 3 -68 15 -53 15 -54 -9 -74 l-25 -20 42 -57 42 -57 106
-1 106 0 41 58 41 59 -25 19 c-24 18 -25 20 -13 72 11 45 10 55 -3 68 -14 14
-16 11 -21 -26 -7 -53 -58 -220 -67 -220 -4 0 -15 29 -24 64 -15 56 -16 70 -5
101 8 20 23 42 34 47 28 15 35 28 35 70 0 21 9 52 20 70 11 18 20 40 20 49 0
9 9 24 19 34 20 17 23 49 22 198 -1 63 -47 127 -93 127 -10 0 -25 11 -34 25
-18 28 -28 29 -99 10z"/>
</g>
</svg>
